{"title":"Australian Survivor - S03E17","uid":15899413,"size":613938542,"categoryP":"video","categoryS":"tv_shows","magnet":"?xt=urn:btih:5f2a5ba56ff02e722c54518bc6994446028841e6&amp;dn=Australian+Survivor+-+S03E17&amp;tr=udp%3A%2F%2Ftracker.leechers-paradise.org%3A6969&amp;tr=udp%3A%2F%2Fzer0day.ch%3A1337&amp;tr=udp%3A%2F%2Fopen.demonii.com%3A1337&amp;tr=udp%3A%2F%2Ftracker.coppersurfer.tk%3A6969&amp;tr=udp%3A%2F%2Fexodus.desync.com%3A6969","seeders":4,"leechers":10,"uploader":"Bullrout","files":1,"time":1474991453,"description":"Australian Survivor - S03E17\r\n\r\nOne tribe mate is furious after last night's tribal council and is determined to get revenge. At the reward challenge Jonathan announces that the winning team will each receive a letter from home.\r\n\r\n\r\nComplete name                            : Australian Survivor - S03E17.mp4\r\nFormat                                   : MPEG-4\r\nFormat profile                           : Base Media / Version 2\r\nCodec ID                                 : mp42 (mp42/isom/avc1)\r\nFile size                                : 585 MiB\r\nDuration                                 : 1 h 13 min\r\nOverall bit rate mode                    : Variable\r\nOverall bit rate                         : 1 108 kb/s\r\n\r\nVideo\r\nID                                       : 2\r\nFormat                                   : AVC\r\nFormat/Info                              : Advanced Video Codec\r\nFormat profile                           :   \r\nFormat settings, CABAC                   : Yes\r\nFormat settings, ReFrames                : 3 frames\r\nCodec ID                                 : avc1\r\nCodec ID/Info                            : Advanced Video Coding\r\nDuration                                 : 1 h 13 min\r\nBit rate mode                            : Variable\r\nBit rate                                 : 977 kb/s\r\nMaximum bit rate                         : 1 000 kb/s\r\nWidth                                    : 720 pixels\r\nHeight                                   : 404 pixels\r\nDisplay aspect ratio                     : 16:9\r\nOriginal display aspect ratio            : 16:9\r\nFrame rate mode                          : Constant\r\nFrame rate                               : 25.000 FPS\r\nStandard                                 : PAL\r\nColor space                              : YUV\r\nChroma subsampling                       : 4:2:0\r\nBit depth                                : 8 bits\r\nScan type                                : Progressive\r\nBits/(Pixel*Frame)                       : 0.134\r\nStream size                              : 516 MiB (88%)\r\nWriting library                          : x264 core 112\r\nColor range                              : Limited\r\nColor primaries                          : BT.601 PAL\r\nTransfer characteristics                 : BT.470 System B, BT.470 System G\r\nMatrix coefficients                      : BT.601\r\n\r\nAudio\r\nID                                       : 1\r\nFormat                                   : AAC\r\nFormat/Info                              : Advanced Audio Codec\r\nFormat profile                           : LC\r\nCodec ID                                 : 40\r\nDuration                                 : 1 h 13 min\r\nBit rate mode                            : Variable\r\nBit rate                                 : 128 kb/s\r\nMaximum bit rate                         : 576 kb/s\r\nChannel(s)                               : 2 channels\r\nChannel positions                        : Front: L R\r\nSampling rate                            : 48.0 kHz\r\nFrame rate                               : 46.875 FPS (1024 spf)\r\nCompression mode                         : Lossy\r\nStream size                              : 67.6 MiB (12%)","torrent":{"xt":"urn:btih:5f2a5ba56ff02e722c54518bc6994446028841e6","amp;dn":"Australian+Survivor+-+S03E17","amp;tr":["udp%3A%2F%2Ftracker.leechers-paradise.org%3A6969","udp%3A%2F%2Fzer0day.ch%3A1337","udp%3A%2F%2Fopen.demonii.com%3A1337","udp%3A%2F%2Ftracker.coppersurfer.tk%3A6969","udp%3A%2F%2Fexodus.desync.com%3A6969"],"infoHash":"5f2a5ba56ff02e722c54518bc6994446028841e6","infoHashBuffer":{"type":"Buffer","data":[95,42,91,165,111,240,46,114,44,84,81,139,198,153,68,70,2,136,65,230]},"announce":[],"urlList":[]}}